<?xml version="1.0" encoding="UTF-8" standalone="no"?>
<!-- Created with Inkscape (http://www.inkscape.org/) -->

<svg
   xmlns:dc="http://purl.org/dc/elements/1.1/"
   xmlns:cc="http://creativecommons.org/ns#"
   xmlns:rdf="http://www.w3.org/1999/02/22-rdf-syntax-ns#"
   xmlns:svg="http://www.w3.org/2000/svg"
   xmlns="http://www.w3.org/2000/svg"
   xmlns:sodipodi="http://sodipodi.sourceforge.net/DTD/sodipodi-0.dtd"
   xmlns:inkscape="http://www.inkscape.org/namespaces/inkscape"
   width="210mm"
   height="297mm"
   viewBox="0 0 210 297"
   version="1.1"
   id="svg8"
   inkscape:version="0.92.3 (2405546, 2018-03-11)"
   sodipodi:docname="websitelogo.svg">
  <defs
     id="defs2" />
  <sodipodi:namedview
     id="base"
     pagecolor="#ffffff"
     bordercolor="#666666"
     borderopacity="1.0"
     inkscape:pageopacity="0.0"
     inkscape:pageshadow="2"
     inkscape:zoom="2.8"
     inkscape:cx="480.2646"
     inkscape:cy="831.15488"
     inkscape:document-units="mm"
     inkscape:current-layer="layer1"
     showgrid="false"
     inkscape:window-width="1920"
     inkscape:window-height="1013"
     inkscape:window-x="-9"
     inkscape:window-y="-9"
     inkscape:window-maximized="1" />
  <metadata
     id="metadata5">
    <rdf:RDF>
      <cc:Work
         rdf:about="">
        <dc:format>image/svg+xml</dc:format>
        <dc:type
           rdf:resource="http://purl.org/dc/dcmitype/StillImage" />
        <dc:title></dc:title>
      </cc:Work>
    </rdf:RDF>
  </metadata>
  <g
     inkscape:label="Layer 1"
     inkscape:groupmode="layer"
     id="layer1">
    <path
       style="fill:#984b43;fill-opacity:1;stroke:none;stroke-width:3.77952766;stroke-miterlimit:4;stroke-dasharray:none;stroke-opacity:1"
       d="M 414.62891 108.48242 L 314.98633 281.06836 L 339.84766 295.42383 L 346.61719 270.56641 L 359.07227 248.99414 L 371.52734 227.41992 L 389.78711 221.98242 L 474.84375 271.08984 L 474.84375 369.30664 L 461.00586 382.40039 L 436.09375 382.40039 L 411.18359 382.40039 L 386.27344 375.83398 L 386.27344 404.54297 L 585.55859 404.54297 L 585.55859 375.83398 L 560.64844 382.40039 L 535.73633 382.40039 L 510.82617 382.40039 L 496.98633 369.30469 L 496.98633 271.08984 L 582.04297 221.98242 L 600.30273 227.41992 L 612.75977 248.99414 L 625.21484 270.56641 L 631.98242 295.42383 L 656.8457 281.06836 L 557.20312 108.48242 L 532.33984 122.83594 L 550.48242 141.12695 L 562.9375 162.70117 L 575.39258 184.27344 L 570.97266 202.80469 L 485.91602 251.91406 L 400.85938 202.80664 L 396.4375 184.27344 L 408.89453 162.70117 L 421.34961 141.12695 L 439.49023 122.83594 L 414.62891 108.48242 z "
       transform="scale(0.26458333)"
       id="path833" />
  </g>
</svg>
