<!--?xml version="1.0" encoding="UTF-8" standalone="no"?-->
<!-- Created with Inkscape (http://www.inkscape.org/) -->

<svg xmlns:dc="http://purl.org/dc/elements/1.1/" xmlns:cc="http://creativecommons.org/ns#" xmlns:rdf="http://www.w3.org/1999/02/22-rdf-syntax-ns#" xmlns:svg="http://www.w3.org/2000/svg" xmlns="http://www.w3.org/2000/svg" xmlns:xlink="http://www.w3.org/1999/xlink" xmlns:sodipodi="http://sodipodi.sourceforge.net/DTD/sodipodi-0.dtd" xmlns:inkscape="http://www.inkscape.org/namespaces/inkscape" width="210mm" height="297mm" viewBox="0 0 210 297" version="1.1" id="svg837" sodipodi:docname="treebrain.svg" inkscape:version="0.92.3 (2405546, 2018-03-11)" style="">
  <defs id="defs831">
    <linearGradient id="linearGradient2693" inkscape:collect="always">
      <stop id="stop2689" offset="0" style="stop-color:#ffdd55;stop-opacity:1;"></stop>
      <stop id="stop2691" offset="1" style="stop-color:#00dd55;stop-opacity:1"></stop>
    </linearGradient>
    <linearGradient inkscape:collect="always" xlink:href="#linearGradient2693" id="linearGradient2687" x1="12.202795" y1="168.47591" x2="114.08568" y2="265.48636" gradientUnits="userSpaceOnUse" gradientTransform="matrix(0.81007943,0,0,0.81007943,30.990972,43.761934)"></linearGradient>
  </defs>
  <sodipodi:namedview id="base" pagecolor="#ffffff" bordercolor="#666666" borderopacity="1.0" inkscape:pageopacity="0.0" inkscape:pageshadow="2" inkscape:zoom="0.49497475" inkscape:cx="229.31078" inkscape:cy="564.87991" inkscape:document-units="mm" inkscape:current-layer="layer1" showgrid="false" inkscape:window-width="1920" inkscape:window-height="1013" inkscape:window-x="-9" inkscape:window-y="-9" inkscape:window-maximized="1" inkscape:snap-others="false" inkscape:snap-nodes="false"></sodipodi:namedview>
  <metadata id="metadata834">
    <rdf:rdf>
      <cc:work rdf:about="">
        <dc:format>image/svg+xml</dc:format>
        <dc:type rdf:resource="http://purl.org/dc/dcmitype/StillImage"></dc:type>
      </cc:work>
    </rdf:rdf>
  </metadata>
  <g inkscape:label="Layer 1" inkscape:groupmode="layer" id="layer1">
    <path style="display: inline; opacity: 1; fill: none; stroke: rgb(133, 240, 128); stroke-width: 1.17062; stroke-linecap: butt; stroke-linejoin: miter; stroke-miterlimit: 4; stroke-opacity: 1;" d="m 120.70877,231.05706 c 0,-18.89564 0.13029,-10.5541 0.13029,-23.99543 0,-13.44133 -27.714752,-9.35654 -38.14857,-13.25167 -8.59522,-3.45982 -14.696621,-12.67724 -23.516424,-13.51338 -16.879289,-1.60025 -32.744528,3.82744 -47.846975,-6.26352" id="path827" inkscape:connector-curvature="0" sodipodi:nodetypes="czcsc" class="UQfUiTAJ_0"></path>
    <path sodipodi:nodetypes="csssc" inkscape:connector-curvature="0" id="path829" d="m 123.40943,231.05706 c 0,-18.89564 0.1303,-27.6038 0.1303,-33.56575 0,-23.81427 -54.489528,-27.39712 -63.101677,-28.6317 C 45.237091,166.68053 47.824991,135.77352 27.180142,135.52779 16.360431,135.39905 1.2499956,150.38987 1.8302224,150.75252" style="display: inline; opacity: 1; fill: none; stroke: rgb(96, 136, 255); stroke-width: 1.17062; stroke-linecap: butt; stroke-linejoin: miter; stroke-miterlimit: 4; stroke-opacity: 1;" class="UQfUiTAJ_1"></path>
    <path style="display: inline; opacity: 1; fill: none; stroke: rgb(62, 221, 172); stroke-width: 1.17062; stroke-linecap: butt; stroke-linejoin: miter; stroke-miterlimit: 4; stroke-opacity: 1;" d="m 121.72363,231.05706 c 0,-18.89564 0.1303,-4.62838 0.1303,-25.14041 0,-20.51205 -26.288274,-10.22752 -42.680586,-17.98917" id="path1457" inkscape:connector-curvature="0" sodipodi:nodetypes="czc" class="UQfUiTAJ_2"></path>
    <path sodipodi:nodetypes="czc" inkscape:connector-curvature="0" id="path1459" d="m 121.72363,231.05706 c 0,-18.89564 0.1303,-0.1863 0.1303,-25.14041 0,-24.95414 -34.209221,-16.95225 -47.436225,-23.21514" style="display: inline; opacity: 1; fill: none; stroke: rgb(255, 168, 85); stroke-width: 1.17062; stroke-linecap: butt; stroke-linejoin: miter; stroke-miterlimit: 4; stroke-opacity: 1;" class="UQfUiTAJ_3"></path>
    <path style="display: inline; opacity: 1; fill: none; stroke: rgb(114, 131, 148); stroke-width: 1.17062; stroke-linecap: butt; stroke-linejoin: miter; stroke-miterlimit: 4; stroke-opacity: 1;" d="m 122.31489,231.05706 c 0,-18.89564 0.1303,-4.47162 0.1303,-29.42572 0,-26.9924 -49.445552,-17.2345 -72.510149,-25.60691 -23.064602,-8.37241 -30.463758,-17.04605 -43.4027722,-9.57571" id="path1461" inkscape:connector-curvature="0" sodipodi:nodetypes="cszc" class="UQfUiTAJ_4"></path>
    <path sodipodi:nodetypes="cszc" inkscape:connector-curvature="0" id="path1463" d="m 122.31489,231.05706 c 0,-18.89564 0.1303,-4.47162 0.1303,-29.42572 0,-26.9924 -49.445552,-17.2345 -72.510149,-25.60691 C 26.870439,167.65202 26.223017,152.50558 5.1914481,164.64814" style="display: inline; opacity: 1; fill: none; stroke: url(&quot;#linearGradient2687&quot;); stroke-width: 1.17062; stroke-linecap: butt; stroke-linejoin: miter; stroke-miterlimit: 4; stroke-opacity: 1;" class="UQfUiTAJ_5"></path>
    <path sodipodi:nodetypes="czcssc" inkscape:connector-curvature="0" id="path1465" d="m 120.70877,231.05706 c 0,-18.89564 0.13029,-10.5541 0.13029,-23.99543 0,-13.44133 -27.714752,-9.35654 -38.14857,-13.25167 -8.59522,-3.45982 -14.696621,-12.67724 -23.516424,-13.51338 -7.480238,-0.70917 -13.021933,-1.87361 -20.117796,-3.02486 -8.916075,-1.4466 -18.10002,-6.33816 -29.2812161,-6.19492" style="display: inline; opacity: 1; fill: none; stroke: rgb(255, 0, 128); stroke-width: 1.17062; stroke-linecap: butt; stroke-linejoin: miter; stroke-miterlimit: 4; stroke-opacity: 1;" class="UQfUiTAJ_6"></path>
    <path style="display: inline; opacity: 1; fill: none; stroke: rgb(152, 211, 128); stroke-width: 1.17062; stroke-linecap: butt; stroke-linejoin: miter; stroke-miterlimit: 4; stroke-opacity: 1;" d="m 120.70877,231.05706 c 0,-18.89564 0.13029,-10.5541 0.13029,-23.99543 0,-13.44133 -27.714752,-9.35654 -38.14857,-13.25167 -8.59522,-3.45982 -14.696621,-12.67724 -23.516424,-13.51338 -7.480238,-0.70917 -13.021933,-1.87361 -20.117796,-3.02486 -8.916075,-1.4466 -11.891872,-10.62473 -30.2420006,-7.96868" id="path1467" inkscape:connector-curvature="0" sodipodi:nodetypes="czcssc" class="UQfUiTAJ_7"></path>
    <path style="display: inline; opacity: 1; fill: none; stroke: rgb(255, 172, 85); stroke-width: 1.17062; stroke-linecap: butt; stroke-linejoin: miter; stroke-miterlimit: 4; stroke-opacity: 1;" d="m 122.31489,231.05706 c 0,-18.89564 0.66508,-4.47734 0.1303,-29.42572 -0.53592,-25.00129 -39.734995,-24.27585 -56.940347,-26.79685 -17.205361,-2.52101 -21.074127,-3.23316 -32.014807,-12.07567 -10.940686,-8.84254 -19.460293,-8.86488 -28.8211847,0.009" id="path1469" inkscape:connector-curvature="0" sodipodi:nodetypes="cszzc" class="UQfUiTAJ_8"></path>
    <path sodipodi:nodetypes="cszzc" inkscape:connector-curvature="0" id="path1471" d="m 122.31489,231.05706 c 0,-18.89564 0.66508,-4.47734 0.1303,-29.42572 -0.53592,-25.00129 -39.734995,-24.17133 -56.940347,-26.79685 -17.205361,-2.62554 -21.074127,-11.49018 -26.370754,-16.4655 -5.296624,-4.97531 -25.257413,-11.19511 -35.3204144,2.88815" style="display: inline; opacity: 1; fill: none; stroke: rgb(255, 136, 85); stroke-width: 1.17062; stroke-linecap: butt; stroke-linejoin: miter; stroke-miterlimit: 4; stroke-opacity: 1;" class="UQfUiTAJ_9"></path>
    <path style="display: inline; opacity: 1; fill: none; stroke: rgb(137, 221, 85); stroke-width: 1.17062; stroke-linecap: butt; stroke-linejoin: miter; stroke-miterlimit: 4; stroke-opacity: 1;" d="m 122.31489,231.05706 c 0,-18.89564 0.66508,-4.47734 0.1303,-29.42572 -0.53592,-25.00129 -39.734995,-24.17133 -56.940347,-26.79685 -17.205361,-2.62554 -21.074127,-11.49018 -26.370754,-16.4655 -5.296624,-4.97531 -15.575663,-24.35047 -36.9463542,0.2275" id="path1473" inkscape:connector-curvature="0" sodipodi:nodetypes="cszzc" class="UQfUiTAJ_10"></path>
    <path style="display: inline; opacity: 1; fill: none; stroke: rgb(188, 0, 144); stroke-width: 1.17062; stroke-linecap: butt; stroke-linejoin: miter; stroke-miterlimit: 4; stroke-opacity: 1;" d="m 123.40943,231.05706 c 0,-18.89564 0.1303,-27.6038 0.1303,-33.56575 0,-23.81427 -54.489528,-27.39712 -63.101677,-28.6317 C 45.237091,166.68053 47.511434,140.68595 26.866584,140.44021 16.046873,140.31145 1.9816343,154.46616 2.5618592,154.8288" id="path1475" inkscape:connector-curvature="0" sodipodi:nodetypes="csssc" class="UQfUiTAJ_11"></path>
    <path sodipodi:nodetypes="czzc" inkscape:connector-curvature="0" id="path1631" d="m 124.00069,231.05706 c 0,-18.89564 0.1303,-0.93633 0.1303,-33.56575 0,-32.62944 -47.465499,-29.43323 -58.174418,-34.56649 -10.708915,-5.13328 -14.706237,-19.75656 -24.438576,-24.06817" style="display: inline; opacity: 1; fill: none; stroke: rgb(255, 112, 87); stroke-width: 1.17062; stroke-linecap: butt; stroke-linejoin: miter; stroke-miterlimit: 4; stroke-opacity: 1;" class="UQfUiTAJ_12"></path>
    <path style="display: inline; opacity: 1; fill: none; stroke: rgb(134, 83, 93); stroke-width: 1.17062; stroke-linecap: butt; stroke-linejoin: miter; stroke-miterlimit: 4; stroke-opacity: 1;" d="m 124.00069,231.05706 c 0,-18.89564 0.1303,-0.93633 0.1303,-33.56575 0,-32.62944 -47.465499,-29.43323 -58.174418,-34.56649 -5.720427,-2.74207 -8.256721,-8.60779 -10.725721,-12.88422 -6.18688,-10.716 -23.103153,-38.27096 -53.8483512,-2.92689" id="path1633" inkscape:connector-curvature="0" sodipodi:nodetypes="czssc" class="UQfUiTAJ_13"></path>
    <path sodipodi:nodetypes="czsszc" inkscape:connector-curvature="0" id="path1635" d="m 124.19014,231.05706 c 0,-18.89564 0.13028,-0.93633 0.13028,-33.56575 0,-32.62944 -47.465482,-29.43323 -58.174402,-34.56649 -5.720428,-2.74207 -8.25672,-8.60779 -10.725721,-12.88422 -2.277072,-3.94401 -2.334366,-12.04732 -8.041676,-17.75462 -5.707309,-5.70732 -24.280262,-14.09707 -44.5524444,8.03395" style="display: inline; opacity: 1; fill: none; stroke: rgb(122, 119, 255); stroke-width: 1.17062; stroke-linecap: butt; stroke-linejoin: miter; stroke-miterlimit: 4; stroke-opacity: 1;" class="UQfUiTAJ_14"></path>
    <path style="display: inline; opacity: 1; fill: none; stroke: rgb(237, 191, 42); stroke-width: 1.17062; stroke-linecap: butt; stroke-linejoin: miter; stroke-miterlimit: 4; stroke-opacity: 1;" d="m 125.25792,231.05706 c 0,-18.89564 0.13031,-1.04392 0.13031,-33.56575 0,-32.52185 -33.079327,-33.97567 -40.856203,-36.05949 C 76.755145,159.34802 67.927095,153.9325 64.121576,144.03327 57.269042,126.20789 32.561565,108.6039 3.8939768,136.32898" id="path1637" inkscape:connector-curvature="0" sodipodi:nodetypes="czzsc" class="UQfUiTAJ_15"></path>
    <path sodipodi:nodetypes="czzc" inkscape:connector-curvature="0" id="path1641" d="m 125.25792,231.05706 c 0,-18.89564 0.13031,-1.04392 0.13031,-33.56575 0,-32.52185 -33.079327,-33.97567 -40.856203,-36.05949 -7.776882,-2.0838 -21.517352,3.47525 -26.681619,-23.46068" style="display: inline; opacity: 1; fill: none; stroke: rgb(212, 255, 42); stroke-width: 1.17062; stroke-linecap: butt; stroke-linejoin: miter; stroke-miterlimit: 4; stroke-opacity: 1;" class="UQfUiTAJ_16"></path>
    <path sodipodi:nodetypes="czzsc" inkscape:connector-curvature="0" id="path1643" d="m 125.25792,231.05706 c 0,-18.89564 0.13031,-1.04392 0.13031,-33.56575 0,-32.52185 -33.079327,-33.97567 -40.856203,-36.05949 -7.776882,-2.0838 -15.873298,-10.11229 -18.738135,-20.74316 -4.969094,-18.43938 -27.901831,-35.95197 -60.3321211,-12.5122" style="display: inline; opacity: 1; fill: none; stroke: rgb(212, 126, 103); stroke-width: 1.17062; stroke-linecap: butt; stroke-linejoin: miter; stroke-miterlimit: 4; stroke-opacity: 1;" class="UQfUiTAJ_17"></path>
    <path style="display: inline; opacity: 1; fill: none; stroke: rgb(255, 175, 0); stroke-width: 1.17062; stroke-linecap: butt; stroke-linejoin: miter; stroke-miterlimit: 4; stroke-opacity: 1;" d="m 126.43253,231.05706 c 0,-18.89564 0.27811,3.41366 0.1303,-32.72961 C 126.41501,162.1842 105.17316,166.54614 89.284754,157.30576 72.880295,147.76523 72.42986,131.18237 59.835876,120.58025 49.395214,111.79088 34.102232,109.24105 9.3538819,123.26404" id="path1645" inkscape:connector-curvature="0" sodipodi:nodetypes="czssc" class="UQfUiTAJ_18"></path>
    <path sodipodi:nodetypes="czssc" inkscape:connector-curvature="0" id="path1647" d="m 126.43253,231.05706 c 0,-18.89564 0.27811,3.41366 0.1303,-32.72961 -0.14782,-36.14325 -21.38967,-31.78131 -37.278076,-41.02169 -16.404459,-9.54053 -9.852086,-25.91435 -25.059059,-40.59274 -9.819553,-9.47822 -25.733642,-11.33918 -50.481994,2.68379" style="display: inline; opacity: 1; fill: none; stroke: rgb(33, 137, 0); stroke-width: 1.17062; stroke-linecap: butt; stroke-linejoin: miter; stroke-miterlimit: 4; stroke-opacity: 1;" class="UQfUiTAJ_19"></path>
    <path style="display: inline; opacity: 1; fill: none; stroke: rgb(255, 102, 170); stroke-width: 1.17062; stroke-linecap: butt; stroke-linejoin: miter; stroke-miterlimit: 4; stroke-opacity: 1;" d="m 126.43253,231.05706 c 0,-18.89564 0.27811,3.41366 0.1303,-32.72961 -0.14782,-36.14325 -20.17798,-38.48328 -36.095575,-47.67331 -12.403215,-7.16097 -7.560986,-22.58852 -22.76796,-37.2669 -9.81955,-9.47823 -34.898042,-12.07826 -54.25122,2.75769" id="path1649" inkscape:connector-curvature="0" sodipodi:nodetypes="czssc" class="UQfUiTAJ_20"></path>
    <path sodipodi:nodetypes="czssc" inkscape:connector-curvature="0" id="path1651" d="m 126.43253,231.05706 c 0,-18.89564 0.25803,-5.47041 0.1303,-36.70133 C 126.4351,163.12481 112.20025,154.65614 94.827739,145.77633 81.68546,139.05876 84.532211,125.25717 71.764152,109.83972 63.059251,99.32854 39.60065,95.322568 19.508406,109.64129" style="display: inline; opacity: 1; fill: none; stroke: rgb(255, 102, 0); stroke-width: 1.17062; stroke-linecap: butt; stroke-linejoin: miter; stroke-miterlimit: 4; stroke-opacity: 1;" class="UQfUiTAJ_21"></path>
    <path style="display: inline; opacity: 1; fill: none; stroke: rgb(255, 182, 0); stroke-width: 1.17062; stroke-linecap: butt; stroke-linejoin: miter; stroke-miterlimit: 4; stroke-opacity: 1;" d="m 126.43253,231.05706 c 0,-18.89564 0.25803,-5.47041 0.1303,-36.70133 -0.12764,-31.23092 -14.36258,-39.69959 -31.735091,-48.5794 C 81.68546,139.05876 88.712994,122.64419 75.944934,107.22672 67.240026,96.715539 41.063922,93.02315 21.076199,104.83327" id="path1653" inkscape:connector-curvature="0" sodipodi:nodetypes="czssc" class="UQfUiTAJ_22"></path>
    <path sodipodi:nodetypes="czsssc" inkscape:connector-curvature="0" id="path1655" d="m 126.43253,231.05706 c 0,-18.89564 0.25803,-5.47041 0.1303,-36.70133 -0.12764,-31.23092 -14.36258,-39.69959 -31.735091,-48.5794 C 81.68546,139.05876 88.712994,122.64419 75.944934,107.22672 69.871109,99.892582 67.297586,95.206977 54.109888,93.941317 48.126324,93.367053 41.365145,94.242505 27.34737,99.084706" style="display: inline; opacity: 1; fill: none; stroke: rgb(255, 168, 0); stroke-width: 1.17062; stroke-linecap: butt; stroke-linejoin: miter; stroke-miterlimit: 4; stroke-opacity: 1;" class="UQfUiTAJ_23"></path>
    <path style="display: inline; opacity: 1; fill: none; stroke: rgb(112, 102, 0); stroke-width: 1.17062; stroke-linecap: butt; stroke-linejoin: miter; stroke-miterlimit: 4; stroke-opacity: 1;" d="m 126.43253,231.05706 c 0,-18.89564 0.25803,-5.47041 0.1303,-36.70133 -0.12764,-31.23092 -11.22127,-44.65995 -28.483212,-53.75285 -15.13775,-7.97397 -7.297246,-30.15325 -24.647506,-42.983988" id="path1657" inkscape:connector-curvature="0" sodipodi:nodetypes="czsc" class="UQfUiTAJ_24"></path>
    <path sodipodi:nodetypes="czssc" inkscape:connector-curvature="0" id="path1659" d="m 126.43253,231.05706 c 0,-18.89564 0.25803,-5.47041 0.1303,-36.70133 -0.12764,-31.23092 -11.22128,-44.65995 -28.483212,-53.75285 -7.225773,-3.80626 -7.784632,-11.21963 -8.281911,-19.32475 -0.544495,-8.87484 -2.71501,-44.224537 -57.457586,-27.650191" style="display: inline; opacity: 1; fill: none; stroke: rgb(157, 102, 0); stroke-width: 1.17062; stroke-linecap: butt; stroke-linejoin: miter; stroke-miterlimit: 4; stroke-opacity: 1;" class="UQfUiTAJ_25"></path>
    <path style="display: inline; opacity: 1; fill: none; stroke: rgb(137, 21, 64); stroke-width: 1.17062; stroke-linecap: butt; stroke-linejoin: miter; stroke-miterlimit: 4; stroke-opacity: 1;" d="m 126.43253,231.05706 c 0,-18.89564 0.25803,-5.47041 0.1303,-36.70133 -0.12764,-31.23092 -11.22128,-44.65995 -28.483216,-53.75285 -7.225773,-3.80626 -7.784632,-11.21963 -8.281911,-19.32475 -0.202594,-3.3021 2.574687,-10.01021 1.444936,-16.48769 C 89.336034,93.858827 70.767228,81.104869 43.130465,87.641524" id="path1661" inkscape:connector-curvature="0" sodipodi:nodetypes="czsssc" class="UQfUiTAJ_26"></path>
    <path sodipodi:nodetypes="czsssc" inkscape:connector-curvature="0" id="path1663" d="m 127.60212,231.05706 c 0,-18.89564 0.19776,-20.20742 0.13029,-36.70133 -0.0675,-16.49393 -4.21844,-40.79272 -20.53971,-52.81216 -6.57616,-4.84289 -12.906095,-6.93435 -13.403367,-15.03948 -0.202593,-3.30209 2.800025,-9.7493 0.713294,-21.71365 C 92.374468,92.588542 73.504609,77.65573 45.867848,84.192385" style="display: inline; opacity: 1; fill: none; stroke: rgb(157, 221, 85); stroke-width: 1.17062; stroke-linecap: butt; stroke-linejoin: miter; stroke-miterlimit: 4; stroke-opacity: 1;" class="UQfUiTAJ_27"></path>
    <path style="display: inline; opacity: 1; fill: none; stroke: rgb(255, 221, 85); stroke-width: 1.17062; stroke-linecap: butt; stroke-linejoin: miter; stroke-miterlimit: 4; stroke-opacity: 1;" d="m 127.60212,231.05706 c 0,-18.89564 0.19776,-20.20742 0.13029,-36.70133 -0.0675,-16.49393 -4.21844,-40.79272 -20.53971,-52.81216 -6.57616,-4.84289 -9.561466,-8.39762 -10.058746,-16.50275 -0.202592,-3.30209 2.800026,-9.74931 0.7133,-21.71366 C 95.719089,91.125263 77.89443,77.13312 50.257669,81.161303" id="path1665" inkscape:connector-curvature="0" sodipodi:nodetypes="czsssc" class="UQfUiTAJ_28"></path>
    <path sodipodi:nodetypes="czsssc" inkscape:connector-curvature="0" id="path1667" d="m 127.60212,231.05706 c 0,-18.89564 0.19776,-20.20742 0.13029,-36.70133 -0.0675,-16.49393 -4.21844,-40.79272 -20.53971,-52.81216 -6.57616,-4.84289 -8.732968,-11.32456 -7.341237,-19.32477 0.738087,-4.24277 4.785907,-9.43576 2.699167,-21.40011 C 100.42247,88.616787 86.883113,78.805451 60.814138,78.652853" style="display: inline; opacity: 1; fill: none; stroke: rgb(255, 122, 85); stroke-width: 1.17062; stroke-linecap: butt; stroke-linejoin: miter; stroke-miterlimit: 4; stroke-opacity: 1;" class="UQfUiTAJ_29"></path>
    <path style="display: inline; opacity: 1; fill: none; stroke: rgb(0, 159, 255); stroke-width: 1.17062; stroke-linecap: butt; stroke-linejoin: miter; stroke-miterlimit: 4; stroke-opacity: 1;" d="m 128.74326,231.05706 c 0,-18.89564 0.13029,-14.29469 0.13029,-41.92732 0,-52.39829 -32.06176,-55.57496 -22.57653,-72.52199 4.81733,-8.60704 7.64138,-38.571878 -42.546736,-40.005157" id="path1669" inkscape:connector-curvature="0" sodipodi:nodetypes="ccsc" class="UQfUiTAJ_30"></path>
    <path sodipodi:nodetypes="ccssc" inkscape:connector-curvature="0" id="path1671" d="m 128.74326,231.05706 c 0,-18.89564 0.13029,-14.29469 0.13029,-41.92732 0,-52.39829 -32.06176,-55.57496 -22.57653,-72.52199 2.46541,-4.4049 15.56863,-10.41281 7.34268,-25.009101 C 108.7575,82.93557 92.24416,71.537644 74.836258,71.798661" style="display: inline; opacity: 1; fill: none; stroke: rgb(0, 205, 255); stroke-width: 1.17062; stroke-linecap: butt; stroke-linejoin: miter; stroke-miterlimit: 4; stroke-opacity: 1;" class="UQfUiTAJ_31"></path>
    <path style="display: inline; opacity: 1; fill: none; stroke: rgb(126, 150, 255); stroke-width: 1.17062; stroke-linecap: butt; stroke-linejoin: miter; stroke-miterlimit: 4; stroke-opacity: 1;" d="m 128.74326,231.05706 c 0,-18.89564 0.13029,-14.29469 0.13029,-41.92732 0,-52.39829 -32.06176,-55.57496 -22.57653,-72.52199 2.46541,-4.4049 15.56863,-10.41281 7.34268,-25.009101 C 112.114,88.891412 108.43256,89.825685 104.96061,86.6594 96.731065,79.154314 83.034915,73.836402 71.067024,74.015854" id="path1673" inkscape:connector-curvature="0" sodipodi:nodetypes="ccsssc" class="UQfUiTAJ_32"></path>
    <path sodipodi:nodetypes="ccssc" inkscape:connector-curvature="0" id="path1675" d="m 129.90244,231.05706 c 0,-18.89564 0.1303,-14.29469 0.1303,-41.92732 0,-38.28216 -5.59409,-48.73199 -14.12803,-59.0426 -9.94824,-12.01935 7.15197,-21.75317 5.78974,-34.725016 C 120.37188,82.76769 101.67908,73.4173 89.262898,70.148631" style="display: inline; opacity: 1; fill: none; stroke: rgb(0, 255, 162); stroke-width: 1.17062; stroke-linecap: butt; stroke-linejoin: miter; stroke-miterlimit: 4; stroke-opacity: 1;" class="UQfUiTAJ_33"></path>
    <path style="display: inline; opacity: 1; fill: none; stroke: rgb(0, 170, 255); stroke-width: 1.17062; stroke-linecap: butt; stroke-linejoin: miter; stroke-miterlimit: 4; stroke-opacity: 1;" d="m 129.90244,231.05706 c 0,-18.89564 0.1303,-14.29469 0.1303,-41.92732 0,-38.28216 -5.59409,-48.73199 -14.12803,-59.0426 -9.94824,-12.01935 11.95985,-16.63172 11.22477,-31.693941 C 126.51217,85.744545 111.71295,74.567021 96.788303,69.835075" id="path1677" inkscape:connector-curvature="0" sodipodi:nodetypes="ccssc" class="UQfUiTAJ_34"></path>
    <path sodipodi:nodetypes="ccssc" inkscape:connector-curvature="0" id="path1679" d="m 129.90244,231.05706 c 0,-18.89564 0.1303,-14.29469 0.1303,-41.92732 0,-38.28216 0.17055,-48.73199 -8.36331,-59.0426 -9.94825,-12.01935 11.95985,-15.00579 11.22475,-30.068 -0.61731,-12.648652 -15.1209,-25.15648 -30.04555,-29.888427" style="display: inline; opacity: 1; fill: none; stroke: rgb(0, 255, 200); stroke-width: 1.17062; stroke-linecap: butt; stroke-linejoin: miter; stroke-miterlimit: 4; stroke-opacity: 1;" class="UQfUiTAJ_35"></path>
    <path style="display: inline; opacity: 1; fill: none; stroke: rgb(0, 255, 119); stroke-width: 1.17062; stroke-linecap: butt; stroke-linejoin: miter; stroke-miterlimit: 4; stroke-opacity: 1;" d="m 129.90244,231.05706 c 0,-18.89564 0.1303,-14.29469 0.1303,-41.92732 0,-38.28216 7.5612,-43.55853 -0.97266,-53.86915 -9.94826,-12.01934 -0.18184,-17.20383 6.34693,-29.32895 7.75453,-14.40137 -8.17371,-25.895547 -21.76803,-34.02717" id="path1681" inkscape:connector-curvature="0" sodipodi:nodetypes="ccssc" class="UQfUiTAJ_36"></path>
    <path sodipodi:nodetypes="ccssc" inkscape:connector-curvature="0" id="path1683" d="m 129.90244,231.05706 c 0,-18.89564 0.1303,-14.29469 0.1303,-41.92732 0,-38.28216 7.5612,-43.55853 -0.97266,-53.86915 -9.94826,-12.01934 6.45857,-16.16805 12.70289,-28.44206 6.42421,-12.627635 -5.95652,-26.191184 -19.55084,-34.322807" style="display: inline; opacity: 1; fill: none; stroke: rgb(168, 255, 139); stroke-width: 1.17062; stroke-linecap: butt; stroke-linejoin: miter; stroke-miterlimit: 4; stroke-opacity: 1;" class="UQfUiTAJ_37"></path>
    <path style="display: inline; opacity: 1; fill: none; stroke: rgb(195, 255, 35); stroke-width: 1.17062; stroke-linecap: butt; stroke-linejoin: miter; stroke-miterlimit: 4; stroke-opacity: 1;" d="m 129.90244,231.05706 c 0,-18.89564 0.1303,-14.29469 0.1303,-41.92732 0,-38.28216 13.62284,-40.23154 5.67891,-50.61726 -13.41133,-17.53371 4.83263,-19.27212 11.07696,-31.54615 6.42422,-12.627612 -3.00026,-25.304275 -14.08177,-33.140304" id="path1811" inkscape:connector-curvature="0" sodipodi:nodetypes="ccssc" class="UQfUiTAJ_38"></path>
    <path sodipodi:nodetypes="ccssc" inkscape:connector-curvature="0" id="path1815" d="m 129.90244,231.05706 c 0,-18.89564 0.1303,-14.29469 0.1303,-41.92732 0,-38.28216 13.93867,-40.48092 5.67891,-50.61726 -8.38568,-10.29088 9.44916,-19.85202 15.36353,-28.44207 5.93741,-8.62354 3.65131,-22.348032 -6.83894,-32.549049" style="display: inline; opacity: 1; fill: none; stroke: rgb(0, 176, 255); stroke-width: 1.17062; stroke-linecap: butt; stroke-linejoin: miter; stroke-miterlimit: 4; stroke-opacity: 1;" class="UQfUiTAJ_39"></path>
    <path style="display: inline; opacity: 1; fill: none; stroke: rgb(195, 176, 151); stroke-width: 1.17062; stroke-linecap: butt; stroke-linejoin: miter; stroke-miterlimit: 4; stroke-opacity: 1;" d="m 130.89539,231.05706 c 0,-18.89564 0.13029,-14.29469 0.13029,-41.92732 0,-17.89258 1.73025,-23.33742 5.55443,-28.84552 12.32696,-17.75486 -2.60766,-21.57064 3.16115,-31.56806 2.68006,-4.64459 9.24478,-8.1556 13.79014,-12.37459 9.71535,-9.01771 8.4592,-22.452552 -0.67229,-34.325874" id="path1817" inkscape:connector-curvature="0" sodipodi:nodetypes="ccsssc" class="UQfUiTAJ_40"></path>
    <path sodipodi:nodetypes="ccsssc" inkscape:connector-curvature="0" id="path1821" d="m 130.89539,231.05706 c 0,-18.89564 0.13029,-14.29469 0.13029,-41.92732 0,-17.89258 1.73025,-23.33742 5.55443,-28.84552 12.32696,-17.75486 1.57312,-19.58474 7.34194,-29.58219 2.68005,-4.64457 9.66283,-7.11041 14.20821,-11.3294 9.71536,-9.0177 8.04112,-24.542914 -1.09036,-36.416265" style="display: inline; opacity: 1; fill: none; stroke: rgb(255, 85, 82); stroke-width: 1.17062; stroke-linecap: butt; stroke-linejoin: miter; stroke-miterlimit: 4; stroke-opacity: 1;" class="UQfUiTAJ_41"></path>
    <path style="display: inline; opacity: 1; fill: none; stroke: rgb(255, 0, 0); stroke-width: 1.17062; stroke-linecap: butt; stroke-linejoin: miter; stroke-miterlimit: 4; stroke-opacity: 1;" d="m 130.89539,231.05706 c 0,-18.89564 0.13029,-14.29469 0.13029,-41.92732 0,-17.89258 1.73025,-23.33742 5.55443,-28.84552 12.32696,-17.75486 1.57312,-19.58474 7.34194,-29.58219 2.68005,-4.64457 5.34525,-0.0133 10.55001,-3.3859 9.4018,-6.09119 19.6428,-16.18139 12.07912,-38.820239" id="path1823" inkscape:connector-curvature="0" sodipodi:nodetypes="ccsssc" class="UQfUiTAJ_42"></path>
    <path sodipodi:nodetypes="ccsc" inkscape:connector-curvature="0" id="path1825" d="m 130.89539,231.05706 c 0,-18.89564 0.13029,-14.29469 0.13029,-41.92732 0,-17.89258 4.83433,-18.31177 8.65852,-23.81988 12.32695,-17.75488 0.53842,-22.98444 10.00257,-31.20814" style="display: inline; opacity: 1; fill: none; stroke: rgb(255, 0, 128); stroke-width: 1.17062; stroke-linecap: butt; stroke-linejoin: miter; stroke-miterlimit: 4; stroke-opacity: 1;" class="UQfUiTAJ_43"></path>
    <path style="display: inline; opacity: 1; fill: none; stroke: rgb(244, 169, 98); stroke-width: 1.17062; stroke-linecap: butt; stroke-linejoin: miter; stroke-miterlimit: 4; stroke-opacity: 1;" d="m 130.89539,231.05706 c 0,-18.89564 0.13029,-14.29469 0.13029,-41.92732 0,-17.89258 4.83433,-18.31177 8.65852,-23.81988 7.45551,-7.32605 6.16985,-7.18655 11.69834,-19.29955 7.63899,-16.73712 33.06691,-10.16857 28.02836,-49.089082" id="path1827" inkscape:connector-curvature="0" sodipodi:nodetypes="cccsc" class="UQfUiTAJ_44"></path>
    <path sodipodi:nodetypes="ccssc" inkscape:connector-curvature="0" id="path1829" d="m 130.89539,231.05706 c 0,-18.89564 0.13029,-14.29469 0.13029,-41.92732 0,-17.89258 4.83433,-18.31177 8.65852,-23.81988 12.32695,-17.75488 4.7661,-19.41138 13.40225,-27.06939 14.97824,-13.28176 26.11526,-17.23057 19.8207,-44.127682" style="display: inline; opacity: 1; fill: none; stroke: rgb(255, 143, 0); stroke-width: 1.17062; stroke-linecap: butt; stroke-linejoin: miter; stroke-miterlimit: 4; stroke-opacity: 1;" class="UQfUiTAJ_45"></path>
    <path sodipodi:nodetypes="ccssc" inkscape:connector-curvature="0" id="path1831" d="m 131.94057,231.05706 c 0,-18.89564 0.13031,-14.29469 0.13031,-41.92732 0,-17.89258 11.07598,-18.86868 17.08384,-23.22863 7.93141,-5.75584 3.95831,-5.82509 9.77679,-16.93456 8.22823,-15.71053 24.49376,-1.29976 26.40239,-45.09811" style="display: inline; opacity: 1; fill: none; stroke: rgb(255, 129, 96); stroke-width: 1.17062; stroke-linecap: butt; stroke-linejoin: miter; stroke-miterlimit: 4; stroke-opacity: 1;" class="UQfUiTAJ_46"></path>
    <path style="display: inline; opacity: 1; fill: none; stroke: rgb(147, 191, 0); stroke-width: 1.17062; stroke-linecap: butt; stroke-linejoin: miter; stroke-miterlimit: 4; stroke-opacity: 1;" d="m 131.94057,231.05706 c 0,-18.89564 0.13031,-14.29469 0.13031,-41.92732 0,-17.89258 11.07598,-18.86868 17.08384,-23.22863 7.93141,-5.75584 4.83201,-4.81439 11.69837,-15.3086 11.92355,-18.22336 25.97187,-2.03884 29.50646,-39.1856" id="path1833" inkscape:connector-curvature="0" sodipodi:nodetypes="ccssc" class="UQfUiTAJ_47"></path>
    <path sodipodi:nodetypes="ccszc" inkscape:connector-curvature="0" id="path1835" d="m 131.94057,231.05706 c 0,-18.89564 0.13031,-8.6778 0.13031,-36.31041 0,-17.89259 8.43547,-19.53362 15.60573,-21.45489 8.40913,-2.25324 9.17922,-10.40821 14.95024,-19.15176 5.77101,-8.74353 27.44999,-4.69946 29.21082,-35.9337" style="display: inline; opacity: 1; fill: none; stroke: rgb(255, 204, 0); stroke-width: 1.17062; stroke-linecap: butt; stroke-linejoin: miter; stroke-miterlimit: 4; stroke-opacity: 1;" class="UQfUiTAJ_48"></path>
    <path style="display: inline; opacity: 1; fill: none; stroke: rgb(68, 85, 0); stroke-width: 1.17062; stroke-linecap: butt; stroke-linejoin: miter; stroke-miterlimit: 4; stroke-opacity: 1;" d="m 131.94057,231.05706 c 0,-18.89564 0.13031,-8.6778 0.13031,-36.31041 0,-17.89259 8.43547,-19.53362 15.60573,-21.45489 8.40913,-2.25324 11.83985,-7.59977 17.61087,-16.34331 5.77102,-8.74353 21.09406,-0.11725 31.72365,-31.94276" id="path1837" inkscape:connector-curvature="0" sodipodi:nodetypes="ccszc" class="UQfUiTAJ_49"></path>
    <path sodipodi:nodetypes="ccszc" inkscape:connector-curvature="0" id="path1839" d="m 131.94057,231.05706 c 0,-18.89564 0.13031,-8.6778 0.13031,-36.31041 0,-17.89259 8.43547,-19.53362 15.60573,-21.45489 8.40913,-2.25324 11.83985,-7.59977 17.61087,-16.34331 5.77102,-8.74353 24.05031,4.76057 34.23647,-25.43899" style="display: inline; opacity: 1; fill: none; stroke: rgb(116, 161, 0); stroke-width: 1.17062; stroke-linecap: butt; stroke-linejoin: miter; stroke-miterlimit: 4; stroke-opacity: 1;" class="UQfUiTAJ_50"></path>
    <path style="display: inline; opacity: 1; fill: none; stroke: rgb(255, 0, 111); stroke-width: 1.17062; stroke-linecap: butt; stroke-linejoin: miter; stroke-miterlimit: 4; stroke-opacity: 1;" d="m 131.94057,231.05706 c 0,-18.89564 0.13031,-8.6778 0.13031,-36.31041 0,-17.89259 9.45238,-16.49718 16.64042,-18.35081 14.46946,-3.73134 15.8308,-20.75512 27.66214,-20.62989" id="path1841" inkscape:connector-curvature="0" sodipodi:nodetypes="ccsc" class="UQfUiTAJ_51"></path>
    <path style="display: inline; opacity: 1; fill: none; stroke: rgb(255, 202, 0); stroke-width: 1.17062; stroke-linecap: butt; stroke-linejoin: miter; stroke-miterlimit: 4; stroke-opacity: 1;" d="m 131.94057,231.05706 c 0,-18.89564 0.13031,-8.6778 0.13031,-36.31041 0,-17.89259 16.41738,-14.21234 23.58764,-16.13362 8.40913,-2.25323 4.95481,-6.34789 12.28958,-13.68268 7.33481,-7.33478 31.14536,-5.14289 36.30587,-26.03025" id="path1843" inkscape:connector-curvature="0" sodipodi:nodetypes="ccszc" class="UQfUiTAJ_52"></path>
    <path sodipodi:nodetypes="ccssssc" inkscape:connector-curvature="0" id="path1845" d="m 131.94057,231.05706 c 0,-18.89564 0.13031,-8.6778 0.13031,-36.31041 0,-17.89259 16.41738,-14.21234 23.58764,-16.13362 8.40913,-2.25323 4.95481,-6.34789 12.28958,-13.68268 4.1229,-4.12286 13.45137,-5.23575 21.74722,-9.12938 3.33334,-1.5645 2.04145,-3.47091 3.29754,-6.62769 1.17927,-2.96367 6.78888,-6.08994 8.8961,-14.41193" style="display: inline; opacity: 1; fill: none; stroke: rgb(8, 209, 39); stroke-width: 1.17062; stroke-linecap: butt; stroke-linejoin: miter; stroke-miterlimit: 4; stroke-opacity: 1;" class="UQfUiTAJ_53"></path>
    <path sodipodi:nodetypes="csszc" inkscape:connector-curvature="0" id="path1847" d="m 133.04917,231.05706 c 0,-18.89564 0.13029,-2.92923 0.13029,-30.56185 0,-10.84177 7.04977,-14.84238 19.20782,-14.84238 11.36808,0 9.81928,-11.35543 23.14964,-17.27331 13.33034,-5.91791 21.47012,7.31665 33.07754,-18.11394" style="display: inline; opacity: 1; fill: none; stroke: rgb(219, 157, 255); stroke-width: 1.17062; stroke-linecap: butt; stroke-linejoin: miter; stroke-miterlimit: 4; stroke-opacity: 1;" class="UQfUiTAJ_54"></path>
    <path style="display: inline; opacity: 1; fill: none; stroke: rgb(165, 42, 255); stroke-width: 1.17062; stroke-linecap: butt; stroke-linejoin: miter; stroke-miterlimit: 4; stroke-opacity: 1;" d="m 133.04917,231.05706 c 0,-18.89564 0.13029,-2.92923 0.13029,-30.56185 0,-10.84177 7.04977,-14.84238 19.20782,-14.84238 11.36808,0 10.35417,-13.11863 26.07619,-14.45128 15.72204,-1.33268 20.95907,3.31843 30.15099,-14.6648" id="path1849" inkscape:connector-curvature="0" sodipodi:nodetypes="csszc" class="UQfUiTAJ_55"></path>
    <path sodipodi:nodetypes="ccszc" inkscape:connector-curvature="0" id="path1851" d="m 131.94057,231.05706 c 0,-18.89564 0.13031,-8.6778 0.13031,-36.31041 0,-17.89259 16.41738,-14.21234 23.58764,-16.13362 8.40913,-2.25323 4.95481,-6.34789 12.28958,-13.68268 7.33481,-7.33478 26.0239,7.08587 39.54598,-20.38619" style="display: inline; opacity: 1; fill: none; stroke: rgb(255, 219, 157); stroke-width: 1.17062; stroke-linecap: butt; stroke-linejoin: miter; stroke-miterlimit: 4; stroke-opacity: 1;" class="UQfUiTAJ_56"></path>
    <path sodipodi:nodetypes="csszc" inkscape:connector-curvature="0" id="path1853" d="m 133.04917,231.05706 c 0,-18.89564 0.13029,1.4606 0.13029,-26.17203 0,-10.84175 6.00459,-13.37909 18.16264,-13.37909 11.36807,0 7.42759,-10.92375 23.14962,-12.25639 15.72204,-1.33268 27.23025,2.79583 34.95889,-18.11394" style="display: inline; opacity: 1; fill: none; stroke: rgb(126, 42, 255); stroke-width: 1.17062; stroke-linecap: butt; stroke-linejoin: miter; stroke-miterlimit: 4; stroke-opacity: 1;" class="UQfUiTAJ_57"></path>
    <path style="display: inline; opacity: 1; fill: none; stroke: rgb(87, 42, 255); stroke-width: 1.17062; stroke-linecap: butt; stroke-linejoin: miter; stroke-miterlimit: 4; stroke-opacity: 1;" d="m 133.04917,231.05706 c 0,-18.89564 0.13029,1.4606 0.13029,-26.17203 0,-10.84175 6.00459,-13.37909 18.16264,-13.37909 11.36807,0 7.00952,-8.20624 22.73155,-9.53888 15.72203,-1.33268 26.60312,4.88623 34.95888,-13.82864" id="path1855" inkscape:connector-curvature="0" sodipodi:nodetypes="csszc" class="UQfUiTAJ_58"></path>
    <path sodipodi:nodetypes="csszc" inkscape:connector-curvature="0" id="path1857" d="m 133.04917,231.05706 c 0,-18.89564 0.13029,5.22331 0.13029,-22.40933 0,-10.84175 6.00459,-13.37909 18.16264,-13.37909 11.36807,0 5.75529,-8.6243 21.47732,-9.95698 15.72203,-1.33264 25.97599,4.78172 35.16792,-10.79755" style="display: inline; opacity: 1; fill: none; stroke: rgb(212, 209, 255); stroke-width: 1.17062; stroke-linecap: butt; stroke-linejoin: miter; stroke-miterlimit: 4; stroke-opacity: 1;" class="UQfUiTAJ_59"></path>
    <path style="display: inline; opacity: 1; fill: none; stroke: rgb(123, 202, 108); stroke-width: 1.17062; stroke-linecap: butt; stroke-linejoin: miter; stroke-miterlimit: 4; stroke-opacity: 1;" d="m 133.04917,231.05706 c 0,-18.89564 0.13029,5.22331 0.13029,-22.40933 0,-10.84175 6.00459,-13.37909 18.16264,-13.37909 11.36807,0 8.36826,-10.40113 17.50557,-6.50781 9.13732,3.8933 33.29235,4.36363 39.03514,-9.02076" id="path1859" inkscape:connector-curvature="0" sodipodi:nodetypes="csszc" class="UQfUiTAJ_60"></path>
    <path style="display: inline; opacity: 1; fill: none; stroke: rgb(212, 42, 255); stroke-width: 1.17062; stroke-linecap: butt; stroke-linejoin: miter; stroke-miterlimit: 4; stroke-opacity: 1;" d="m 133.04917,231.05706 c 0,-18.89564 0.13029,8.56793 0.13029,-19.06469 0,-21.64351 18.30615,-4.64815 23.54393,-13.72029 5.23781,-9.07211 44.16241,4.25914 49.59165,-11.63372" id="path1861" inkscape:connector-curvature="0" sodipodi:nodetypes="cczc" class="UQfUiTAJ_61"></path>
    <path sodipodi:nodetypes="cc" inkscape:connector-curvature="0" id="path1863" d="m 133.04917,231.05706 c 0,-18.89564 0.13029,8.56793 0.13029,-19.06469" style="display: inline; opacity: 1; fill: none; stroke: rgb(212, 42, 255); stroke-width: 1.17062; stroke-linecap: butt; stroke-linejoin: miter; stroke-miterlimit: 4; stroke-opacity: 1;" class="UQfUiTAJ_62"></path>
    <path sodipodi:nodetypes="ccssc" inkscape:connector-curvature="0" id="path1865" d="m 133.04917,231.05706 c 0,-18.89564 0.13029,8.56793 0.13029,-19.06469 0,-21.64351 18.30612,-4.64815 23.54393,-13.72029 1.68766,-2.9231 7.18509,-1.3626 13.19346,-0.41954 12.63912,1.98378 31.56856,4.99288 35.24845,-5.77916" style="display: inline; opacity: 1; fill: none; stroke: rgb(212, 42, 125); stroke-width: 1.17062; stroke-linecap: butt; stroke-linejoin: miter; stroke-miterlimit: 4; stroke-opacity: 1;" class="UQfUiTAJ_63"></path>
    <path style="display: inline; opacity: 1; fill: none; stroke: rgb(212, 42, 255); stroke-width: 1.17062; stroke-linecap: butt; stroke-linejoin: miter; stroke-miterlimit: 4; stroke-opacity: 1;" d="m 133.04917,231.05706 c 0,-18.89564 0.13029,8.56793 0.13029,-19.06469" id="path1867" inkscape:connector-curvature="0" sodipodi:nodetypes="cc" class="UQfUiTAJ_64"></path>
    <path style="display: inline; opacity: 1; fill: none; stroke: rgb(128, 42, 255); stroke-width: 1.17062; stroke-linecap: butt; stroke-linejoin: miter; stroke-miterlimit: 4; stroke-opacity: 1;" d="m 133.04917,231.05706 c 0,-18.89564 0.13029,8.56793 0.13029,-19.06469 0,-21.64351 18.30612,-4.64815 23.54393,-13.72029 1.68766,-2.9231 7.18509,-1.3626 13.19346,-0.41954 12.63912,1.98378 18.60815,11.57763 32.21741,3.41857" id="path1869" inkscape:connector-curvature="0" sodipodi:nodetypes="ccssc" class="UQfUiTAJ_65"></path>
  </g>
<style data-made-with="vivus-instant">.UQfUiTAJ_0{stroke-dasharray:144 146;stroke-dashoffset:145;animation:UQfUiTAJ_draw 10000ms ease 0ms forwards;}.UQfUiTAJ_1{stroke-dasharray:189 191;stroke-dashoffset:190;animation:UQfUiTAJ_draw 10000ms ease 0ms forwards;}.UQfUiTAJ_2{stroke-dasharray:77 79;stroke-dashoffset:78;animation:UQfUiTAJ_draw 10000ms ease 0ms forwards;}.UQfUiTAJ_3{stroke-dasharray:84 86;stroke-dashoffset:85;animation:UQfUiTAJ_draw 10000ms ease 0ms forwards;}.UQfUiTAJ_4{stroke-dasharray:159 161;stroke-dashoffset:160;animation:UQfUiTAJ_draw 10000ms ease 0ms forwards;}.UQfUiTAJ_5{stroke-dasharray:163 165;stroke-dashoffset:164;animation:UQfUiTAJ_draw 10000ms ease 0ms forwards;}.UQfUiTAJ_6{stroke-dasharray:146 148;stroke-dashoffset:147;animation:UQfUiTAJ_draw 10000ms ease 0ms forwards;}.UQfUiTAJ_7{stroke-dasharray:148 150;stroke-dashoffset:149;animation:UQfUiTAJ_draw 10000ms ease 0ms forwards;}.UQfUiTAJ_8{stroke-dasharray:166 168;stroke-dashoffset:167;animation:UQfUiTAJ_draw 10000ms ease 0ms forwards;}.UQfUiTAJ_9{stroke-dasharray:170 172;stroke-dashoffset:171;animation:UQfUiTAJ_draw 10000ms ease 0ms forwards;}.UQfUiTAJ_10{stroke-dasharray:176 178;stroke-dashoffset:177;animation:UQfUiTAJ_draw 10000ms ease 0ms forwards;}.UQfUiTAJ_11{stroke-dasharray:184 186;stroke-dashoffset:185;animation:UQfUiTAJ_draw 10000ms ease 0ms forwards;}.UQfUiTAJ_12{stroke-dasharray:143 145;stroke-dashoffset:144;animation:UQfUiTAJ_draw 10000ms ease 0ms forwards;}.UQfUiTAJ_13{stroke-dasharray:194 196;stroke-dashoffset:195;animation:UQfUiTAJ_draw 10000ms ease 0ms forwards;}.UQfUiTAJ_14{stroke-dasharray:196 198;stroke-dashoffset:197;animation:UQfUiTAJ_draw 10000ms ease 0ms forwards;}.UQfUiTAJ_15{stroke-dasharray:196 198;stroke-dashoffset:197;animation:UQfUiTAJ_draw 10000ms ease 0ms forwards;}.UQfUiTAJ_16{stroke-dasharray:135 137;stroke-dashoffset:136;animation:UQfUiTAJ_draw 10000ms ease 0ms forwards;}.UQfUiTAJ_17{stroke-dasharray:198 200;stroke-dashoffset:199;animation:UQfUiTAJ_draw 10000ms ease 0ms forwards;}.UQfUiTAJ_18{stroke-dasharray:196 198;stroke-dashoffset:197;animation:UQfUiTAJ_draw 10000ms ease 0ms forwards;}.UQfUiTAJ_19{stroke-dasharray:198 200;stroke-dashoffset:199;animation:UQfUiTAJ_draw 10000ms ease 0ms forwards;}.UQfUiTAJ_20{stroke-dasharray:201 203;stroke-dashoffset:202;animation:UQfUiTAJ_draw 10000ms ease 0ms forwards;}.UQfUiTAJ_21{stroke-dasharray:200 202;stroke-dashoffset:201;animation:UQfUiTAJ_draw 10000ms ease 0ms forwards;}.UQfUiTAJ_22{stroke-dasharray:202 204;stroke-dashoffset:203;animation:UQfUiTAJ_draw 10000ms ease 0ms forwards;}.UQfUiTAJ_23{stroke-dasharray:198 200;stroke-dashoffset:199;animation:UQfUiTAJ_draw 10000ms ease 0ms forwards;}.UQfUiTAJ_24{stroke-dasharray:153 155;stroke-dashoffset:154;animation:UQfUiTAJ_draw 10000ms ease 0ms forwards;}.UQfUiTAJ_25{stroke-dasharray:201 203;stroke-dashoffset:202;animation:UQfUiTAJ_draw 10000ms ease 0ms forwards;}.UQfUiTAJ_26{stroke-dasharray:197 199;stroke-dashoffset:198;animation:UQfUiTAJ_draw 10000ms ease 0ms forwards;}.UQfUiTAJ_27{stroke-dasharray:197 199;stroke-dashoffset:198;animation:UQfUiTAJ_draw 10000ms ease 0ms forwards;}.UQfUiTAJ_28{stroke-dasharray:195 197;stroke-dashoffset:196;animation:UQfUiTAJ_draw 10000ms ease 0ms forwards;}.UQfUiTAJ_29{stroke-dasharray:191 193;stroke-dashoffset:192;animation:UQfUiTAJ_draw 10000ms ease 0ms forwards;}.UQfUiTAJ_30{stroke-dasharray:192 194;stroke-dashoffset:193;animation:UQfUiTAJ_draw 10000ms ease 0ms forwards;}.UQfUiTAJ_31{stroke-dasharray:195 197;stroke-dashoffset:196;animation:UQfUiTAJ_draw 10000ms ease 0ms forwards;}.UQfUiTAJ_32{stroke-dasharray:197 199;stroke-dashoffset:198;animation:UQfUiTAJ_draw 10000ms ease 0ms forwards;}.UQfUiTAJ_33{stroke-dasharray:185 187;stroke-dashoffset:186;animation:UQfUiTAJ_draw 10000ms ease 0ms forwards;}.UQfUiTAJ_34{stroke-dasharray:185 187;stroke-dashoffset:186;animation:UQfUiTAJ_draw 10000ms ease 0ms forwards;}.UQfUiTAJ_35{stroke-dasharray:183 185;stroke-dashoffset:184;animation:UQfUiTAJ_draw 10000ms ease 0ms forwards;}.UQfUiTAJ_36{stroke-dasharray:176 178;stroke-dashoffset:177;animation:UQfUiTAJ_draw 10000ms ease 0ms forwards;}.UQfUiTAJ_37{stroke-dasharray:176 178;stroke-dashoffset:177;animation:UQfUiTAJ_draw 10000ms ease 0ms forwards;}.UQfUiTAJ_38{stroke-dasharray:173 175;stroke-dashoffset:174;animation:UQfUiTAJ_draw 10000ms ease 0ms forwards;}.UQfUiTAJ_39{stroke-dasharray:166 168;stroke-dashoffset:167;animation:UQfUiTAJ_draw 10000ms ease 0ms forwards;}.UQfUiTAJ_40{stroke-dasharray:162 164;stroke-dashoffset:163;animation:UQfUiTAJ_draw 10000ms ease 0ms forwards;}.UQfUiTAJ_41{stroke-dasharray:162 164;stroke-dashoffset:163;animation:UQfUiTAJ_draw 10000ms ease 0ms forwards;}.UQfUiTAJ_42{stroke-dasharray:160 162;stroke-dashoffset:161;animation:UQfUiTAJ_draw 10000ms ease 0ms forwards;}.UQfUiTAJ_43{stroke-dasharray:103 105;stroke-dashoffset:104;animation:UQfUiTAJ_draw 10000ms ease 0ms forwards;}.UQfUiTAJ_44{stroke-dasharray:153 155;stroke-dashoffset:154;animation:UQfUiTAJ_draw 10000ms ease 0ms forwards;}.UQfUiTAJ_45{stroke-dasharray:152 154;stroke-dashoffset:153;animation:UQfUiTAJ_draw 10000ms ease 0ms forwards;}.UQfUiTAJ_46{stroke-dasharray:150 152;stroke-dashoffset:151;animation:UQfUiTAJ_draw 10000ms ease 0ms forwards;}.UQfUiTAJ_47{stroke-dasharray:146 148;stroke-dashoffset:147;animation:UQfUiTAJ_draw 10000ms ease 0ms forwards;}.UQfUiTAJ_48{stroke-dasharray:141 143;stroke-dashoffset:142;animation:UQfUiTAJ_draw 10000ms ease 0ms forwards;}.UQfUiTAJ_49{stroke-dasharray:138 140;stroke-dashoffset:139;animation:UQfUiTAJ_draw 10000ms ease 0ms forwards;}.UQfUiTAJ_50{stroke-dasharray:137 139;stroke-dashoffset:138;animation:UQfUiTAJ_draw 10000ms ease 0ms forwards;}.UQfUiTAJ_51{stroke-dasharray:101 103;stroke-dashoffset:102;animation:UQfUiTAJ_draw 10000ms ease 0ms forwards;}.UQfUiTAJ_52{stroke-dasharray:136 138;stroke-dashoffset:137;animation:UQfUiTAJ_draw 10000ms ease 0ms forwards;}.UQfUiTAJ_53{stroke-dasharray:137 139;stroke-dashoffset:138;animation:UQfUiTAJ_draw 10000ms ease 0ms forwards;}.UQfUiTAJ_54{stroke-dasharray:130 132;stroke-dashoffset:131;animation:UQfUiTAJ_draw 10000ms ease 0ms forwards;}.UQfUiTAJ_55{stroke-dasharray:126 128;stroke-dashoffset:127;animation:UQfUiTAJ_draw 10000ms ease 0ms forwards;}.UQfUiTAJ_56{stroke-dasharray:137 139;stroke-dashoffset:138;animation:UQfUiTAJ_draw 10000ms ease 0ms forwards;}.UQfUiTAJ_57{stroke-dasharray:124 126;stroke-dashoffset:125;animation:UQfUiTAJ_draw 10000ms ease 0ms forwards;}.UQfUiTAJ_58{stroke-dasharray:119 121;stroke-dashoffset:120;animation:UQfUiTAJ_draw 10000ms ease 0ms forwards;}.UQfUiTAJ_59{stroke-dasharray:114 116;stroke-dashoffset:115;animation:UQfUiTAJ_draw 10000ms ease 0ms forwards;}.UQfUiTAJ_60{stroke-dasharray:113 115;stroke-dashoffset:114;animation:UQfUiTAJ_draw 10000ms ease 0ms forwards;}.UQfUiTAJ_61{stroke-dasharray:109 111;stroke-dashoffset:110;animation:UQfUiTAJ_draw 10000ms ease 0ms forwards;}.UQfUiTAJ_62{stroke-dasharray:22 24;stroke-dashoffset:23;animation:UQfUiTAJ_draw 10000ms ease 0ms forwards;}.UQfUiTAJ_63{stroke-dasharray:107 109;stroke-dashoffset:108;animation:UQfUiTAJ_draw 10000ms ease 0ms forwards;}.UQfUiTAJ_64{stroke-dasharray:22 24;stroke-dashoffset:23;animation:UQfUiTAJ_draw 10000ms ease 0ms forwards;}.UQfUiTAJ_65{stroke-dasharray:103 105;stroke-dashoffset:104;animation:UQfUiTAJ_draw 10000ms ease 0ms forwards;}@keyframes UQfUiTAJ_draw{100%{stroke-dashoffset:0;}}@keyframes UQfUiTAJ_fade{0%{stroke-opacity:1;}97.1830985915493%{stroke-opacity:1;}100%{stroke-opacity:0;}}</style></svg>
